<svg xmlns="http://www.w3.org/2000/svg" xmlns:xlink="http://www.w3.org/1999/xlink" width="40" height="40" version="1.1" style=""><rect id="backgroundrect" width="100%" height="100%" x="0" y="0" fill="none" stroke="none"/>

<g class="currentLayer" style=""><title>Layer 1</title><g id="surface1" class="selected" fill="#ffffff" fill-opacity="1">
<path style="stroke: none; fill-rule: nonzero;" d="M 39.484375 37.121094 L 29.578125 27.203125 C 31.921875 24.328125 33.332031 20.667969 33.332031 16.675781 C 33.332031 7.484375 25.859375 0.00390625 16.664062 0.00390625 C 7.464844 0.00390625 0 7.484375 0 16.675781 C 0 25.863281 7.472656 33.335938 16.671875 33.335938 C 20.65625 33.335938 24.324219 31.925781 27.199219 29.582031 L 37.109375 39.488281 C 37.785156 40.164062 38.816406 40.164062 39.492188 39.488281 C 40.171875 38.808594 40.171875 37.796875 39.484375 37.121094 Z M 3.324219 16.675781 C 3.324219 9.316406 9.304688 3.335938 16.664062 3.335938 C 24.023438 3.335938 30.007812 9.324219 30.007812 16.683594 C 30.007812 24.042969 24.023438 30.03125 16.664062 30.03125 C 9.304688 30.03125 3.324219 24.035156 3.324219 16.675781 Z M 3.324219 16.675781 " id="svg_1" fill="#ffffff" fill-opacity="1"/>
</g></g></svg>